<?xml version="1.0" encoding="UTF-8" standalone="no"?>
<!-- Generator: Adobe Illustrator 19.0.0, SVG Export Plug-In . SVG Version: 6.00 Build 0)  -->

<svg
   version="1.1"
   id="Layer_1"
   x="0px"
   y="0px"
   viewBox="0 0 496.2 496.2"
   style="enable-background:new 0 0 496.2 496.2;"
   xml:space="preserve"
   sodipodi:docname="piano.svg"
   inkscape:version="1.2.1 (9c6d41e, 2022-07-14)"
   xmlns:inkscape="http://www.inkscape.org/namespaces/inkscape"
   xmlns:sodipodi="http://sodipodi.sourceforge.net/DTD/sodipodi-0.dtd"
   xmlns="http://www.w3.org/2000/svg"
   xmlns:svg="http://www.w3.org/2000/svg"><defs
   id="defs458" /><sodipodi:namedview
   id="namedview456"
   pagecolor="#505050"
   bordercolor="#eeeeee"
   borderopacity="1"
   inkscape:showpageshadow="0"
   inkscape:pageopacity="0"
   inkscape:pagecheckerboard="0"
   inkscape:deskcolor="#505050"
   showgrid="false"
   inkscape:zoom="0.72271218"
   inkscape:cx="204.09231"
   inkscape:cy="203.40047"
   inkscape:window-width="1335"
   inkscape:window-height="916"
   inkscape:window-x="177"
   inkscape:window-y="38"
   inkscape:window-maximized="0"
   inkscape:current-layer="Layer_1" />
<path
   style="fill:#316cf4;fill-opacity:1"
   d="M496.2,248.1C496.2,111.1,385.1,0,248.1,0S0,111.1,0,248.1s111.1,248.1,248.1,248.1  S496.2,385.1,496.2,248.1z"
   id="path341" />
<g
   id="g351">
	<rect
   x="288.7"
   y="172.7"
   style="fill:#F2F1DF;"
   width="38.1"
   height="150.8"
   id="rect343" />
	<rect
   x="249"
   y="172.7"
   style="fill:#F2F1DF;"
   width="38.1"
   height="150.8"
   id="rect345" />
	<rect
   x="209.3"
   y="172.7"
   style="fill:#F2F1DF;"
   width="38.1"
   height="150.8"
   id="rect347" />
	<rect
   x="169.6"
   y="172.7"
   style="fill:#F2F1DF;"
   width="38.1"
   height="150.8"
   id="rect349" />
</g>
<rect
   x="238.2"
   y="172.8"
   style="fill:#3A3A38;"
   width="20.1"
   height="100"
   id="rect353" />
<rect
   x="238.2"
   y="172.8"
   style="fill:#565656;"
   width="4.3"
   height="100"
   id="rect355" />
<polygon
   style="fill:#282828;"
   points="241.9,268.8 254.5,268.8 258.3,272.8 238.2,272.8 "
   id="polygon357" />
<rect
   x="242"
   y="172.8"
   style="fill:#444443;"
   width="12.4"
   height="96"
   id="rect359" />
<rect
   x="198.3"
   y="172.8"
   style="fill:#3A3A38;"
   width="20.1"
   height="100"
   id="rect361" />
<rect
   x="198.3"
   y="172.8"
   style="fill:#565656;"
   width="4.3"
   height="100"
   id="rect363" />
<polygon
   style="fill:#282828;"
   points="202.1,268.8 214.7,268.8 218.5,272.8 198.3,272.8 "
   id="polygon365" />
<rect
   x="202.2"
   y="172.8"
   style="fill:#444443;"
   width="12.4"
   height="96"
   id="rect367" />
<rect
   x="278"
   y="172.8"
   style="fill:#3A3A38;"
   width="20.1"
   height="100"
   id="rect369" />
<rect
   x="278"
   y="172.8"
   style="fill:#565656;"
   width="4.3"
   height="100"
   id="rect371" />
<polygon
   style="fill:#282828;"
   points="281.7,268.8 294.3,268.8 298.1,272.8 278,272.8 "
   id="polygon373" />
<rect
   x="281.8"
   y="172.8"
   style="fill:#444443;"
   width="12.4"
   height="96"
   id="rect375" />
<g
   id="g383">
	<rect
   x="129.9"
   y="172.7"
   style="fill:#F2F1DF;"
   width="38.1"
   height="150.8"
   id="rect377" />
	<rect
   x="90.2"
   y="172.7"
   style="fill:#F2F1DF;"
   width="38.1"
   height="150.8"
   id="rect379" />
	<rect
   x="50.5"
   y="172.7"
   style="fill:#F2F1DF;"
   width="38.1"
   height="150.8"
   id="rect381" />
</g>
<rect
   x="79.4"
   y="172.8"
   style="fill:#3A3A38;"
   width="20.1"
   height="100"
   id="rect385" />
<rect
   x="79.4"
   y="172.8"
   style="fill:#565656;"
   width="4.3"
   height="100"
   id="rect387" />
<polygon
   style="fill:#282828;"
   points="83.1,268.8 95.7,268.8 99.5,272.8 79.4,272.8 "
   id="polygon389" />
<rect
   x="83.2"
   y="172.8"
   style="fill:#444443;"
   width="12.4"
   height="96"
   id="rect391" />
<rect
   x="119.2"
   y="172.8"
   style="fill:#3A3A38;"
   width="20.1"
   height="100"
   id="rect393" />
<rect
   x="119.2"
   y="172.8"
   style="fill:#565656;"
   width="4.3"
   height="100"
   id="rect395" />
<polygon
   style="fill:#282828;"
   points="123,268.8 135.5,268.8 139.3,272.8 119.2,272.8 "
   id="polygon397" />
<rect
   x="123"
   y="172.8"
   style="fill:#444443;"
   width="12.4"
   height="96"
   id="rect399" />
<g
   id="g407">
	<rect
   x="407.6"
   y="172.7"
   style="fill:#F2F1DF;"
   width="38.1"
   height="150.8"
   id="rect401" />
	<rect
   x="367.9"
   y="172.7"
   style="fill:#F2F1DF;"
   width="38.1"
   height="150.8"
   id="rect403" />
	<rect
   x="328.2"
   y="172.7"
   style="fill:#F2F1DF;"
   width="38.1"
   height="150.8"
   id="rect405" />
</g>
<rect
   x="357.1"
   y="172.8"
   style="fill:#3A3A38;"
   width="20.1"
   height="100"
   id="rect409" />
<rect
   x="357.1"
   y="172.8"
   style="fill:#565656;"
   width="4.3"
   height="100"
   id="rect411" />
<polygon
   style="fill:#282828;"
   points="360.8,268.8 373.4,268.8 377.2,272.8 357.1,272.8 "
   id="polygon413" />
<rect
   x="360.9"
   y="172.8"
   style="fill:#444443;"
   width="12.4"
   height="96"
   id="rect415" />
<rect
   x="396.9"
   y="172.8"
   style="fill:#3A3A38;"
   width="20.1"
   height="100"
   id="rect417" />
<rect
   x="396.9"
   y="172.8"
   style="fill:#565656;"
   width="4.3"
   height="100"
   id="rect419" />
<polygon
   style="fill:#282828;"
   points="400.7,268.8 413.2,268.8 417,272.8 396.9,272.8 "
   id="polygon421" />
<rect
   x="400.7"
   y="172.8"
   style="fill:#444443;"
   width="12.4"
   height="96"
   id="rect423" />
<g
   id="g425">
</g>
<g
   id="g427">
</g>
<g
   id="g429">
</g>
<g
   id="g431">
</g>
<g
   id="g433">
</g>
<g
   id="g435">
</g>
<g
   id="g437">
</g>
<g
   id="g439">
</g>
<g
   id="g441">
</g>
<g
   id="g443">
</g>
<g
   id="g445">
</g>
<g
   id="g447">
</g>
<g
   id="g449">
</g>
<g
   id="g451">
</g>
<g
   id="g453">
</g>
</svg>
